<svg width="200" height="50" viewBox="0 0 200 50" fill="none" xmlns="http://www.w3.org/2000/svg">
<path d="M10.0605 13.0078C12.584 13.0078 14.4766 13.6608 15.7383 14.9668C16.7786 16.0072 17.3099 17.3685 17.332 19.0508C17.332 20.7109 16.8008 22.0723 15.7383 23.1348C14.4544 24.4408 12.5618 25.0938 10.0605 25.0938H5.11328V30.9043C5.11328 31.2363 4.99154 31.5241 4.74805 31.7676C4.50456 32.0111 4.20573 32.1328 3.85156 32.1328C3.51953 32.1328 3.23177 32.0111 2.98828 31.7676C2.74479 31.5241 2.62305 31.2363 2.62305 30.9043V14.2695C2.62305 13.9375 2.74479 13.6497 2.98828 13.4062C3.23177 13.1406 3.51953 13.0078 3.85156 13.0078H10.0605ZM9.82812 22.7695C11.6875 22.7695 13.0378 22.3711 13.8789 21.5742C14.543 20.9544 14.8639 20.1133 14.8418 19.0508C14.8418 17.3685 14.0007 16.2507 12.3184 15.6973C11.6543 15.4759 10.8242 15.3542 9.82812 15.332H5.11328V22.7695H9.82812ZM22.8105 20.4121C24.0944 18.7077 25.5221 17.8555 27.0938 17.8555H27.2266C27.5586 17.8555 27.8353 17.9772 28.0566 18.2207C28.3001 18.4421 28.4219 18.7298 28.4219 19.084C28.4219 19.4382 28.3001 19.7259 28.0566 19.9473C27.8132 20.1465 27.5143 20.2461 27.1602 20.2461H27.0273C26.1198 20.2461 25.3118 20.4674 24.6035 20.9102C23.8952 21.3529 23.2975 21.9284 22.8105 22.6367V30.9043C22.8105 31.2363 22.6888 31.5241 22.4453 31.7676C22.2018 32.0111 21.9141 32.1328 21.582 32.1328C21.25 32.1328 20.9622 32.0111 20.7188 31.7676C20.4753 31.5241 20.3535 31.2363 20.3535 30.9043V19.25C20.3535 18.918 20.4642 18.6302 20.6855 18.3867C20.929 18.1211 21.2279 17.9883 21.582 17.9883C21.9141 17.9883 22.2018 18.11 22.4453 18.3535C22.6888 18.597 22.8105 18.8958 22.8105 19.25V20.4121ZM31.3438 18.8184C32.8711 18.1543 34.4538 17.8333 36.0918 17.8555C37.929 17.8555 39.3568 18.4199 40.375 19.5488C41.2826 20.5228 41.7474 21.7402 41.7695 23.2012V30.9043C41.7695 31.2363 41.6367 31.5241 41.3711 31.7676C41.1276 32.0111 40.8288 32.1328 40.4746 32.1328C40.1426 32.1328 39.8548 32.0111 39.6113 31.7676C39.3678 31.5241 39.2461 31.2363 39.2461 30.9043V30.207C38.7591 30.7161 38.1061 31.1921 37.2871 31.6348C36.4681 32.0553 35.4277 32.2656 34.166 32.2656C32.9043 32.2656 31.8529 31.9004 31.0117 31.1699C30.1484 30.4173 29.7168 29.4323 29.7168 28.2148C29.7168 26.8646 30.2259 25.8021 31.2441 25.0273C32.3509 24.1862 33.9225 23.7767 35.959 23.7988H39.2461V23.5664C39.2461 22.349 38.9473 21.4857 38.3496 20.9766C37.7741 20.4674 36.8665 20.2129 35.627 20.2129C34.5866 20.2129 33.3802 20.4232 32.0078 20.8438C31.875 20.888 31.709 20.9102 31.5098 20.9102C31.3327 20.9102 31.1445 20.8216 30.9453 20.6445C30.7461 20.4453 30.6354 20.1465 30.6133 19.748C30.6133 19.3275 30.8568 19.0176 31.3438 18.8184ZM32.207 27.916C32.207 29.377 33.1699 30.0964 35.0957 30.0742C35.9368 30.0742 36.7227 29.875 37.4531 29.4766C38.2057 29.056 38.8034 28.5911 39.2461 28.082V25.791H36.3242C35.0404 25.791 34.0332 25.957 33.3027 26.2891C32.5723 26.599 32.207 27.1413 32.207 27.916ZM50.3359 29.9746C52.3503 29.9746 53.3464 29.3438 53.3242 28.082C53.3242 27.6836 53.125 27.3737 52.7266 27.1523C52.3281 26.931 51.8301 26.7428 51.2324 26.5879C50.6348 26.4329 49.9818 26.2669 49.2734 26.0898C48.5651 25.9128 47.901 25.6693 47.2812 25.3594C46.6615 25.0495 46.1523 24.651 45.7539 24.1641C45.3555 23.6549 45.1562 23.0352 45.1562 22.3047C45.1562 21.5742 45.2669 20.9544 45.4883 20.4453C45.7096 19.9141 46.0417 19.4603 46.4844 19.084C47.4362 18.265 48.7643 17.8555 50.4688 17.8555C51.8411 17.8555 53.1582 18.0768 54.4199 18.5195C54.6634 18.6081 54.8516 18.763 54.9844 18.9844C55.1393 19.1836 55.2168 19.4049 55.2168 19.6484C55.2168 19.8698 55.1061 20.0911 54.8848 20.3125C54.6855 20.5339 54.4863 20.6445 54.2871 20.6445C54.0879 20.6445 53.8444 20.6003 53.5566 20.5117C52.6934 20.2461 51.7415 20.1133 50.7012 20.1133C49.6608 20.1133 48.875 20.2904 48.3438 20.6445C47.8125 20.9987 47.5469 21.4414 47.5469 21.9727C47.5469 22.4818 47.7461 22.8581 48.1445 23.1016C48.543 23.3229 49.041 23.5221 49.6387 23.6992C50.2585 23.8763 50.9225 24.0423 51.6309 24.1973C52.3613 24.3522 53.0254 24.5846 53.623 24.8945C55.0397 25.625 55.748 26.7428 55.748 28.248C55.748 29.4212 55.3053 30.362 54.4199 31.0703C53.4902 31.8672 52.1732 32.2656 50.4688 32.2656C48.6536 32.2656 47.0156 31.8561 45.5547 31.0371C45.2448 30.8158 45.0788 30.5501 45.0566 30.2402C45.0566 29.9082 45.1562 29.6315 45.3555 29.4102C45.5768 29.1667 45.7982 29.0449 46.0195 29.0449C46.2409 29.0449 46.5286 29.1224 46.8828 29.2773C47.9232 29.7422 49.0742 29.9746 50.3359 29.9746ZM65.875 20.1465C64.2812 20.1465 62.7871 21.0208 61.3926 22.7695V30.9043C61.3926 31.2363 61.2708 31.5241 61.0273 31.7676C60.7839 32.0111 60.4961 32.1328 60.1641 32.1328C59.832 32.1328 59.5443 32.0111 59.3008 31.7676C59.0573 31.5241 58.9355 31.2363 58.9355 30.9043V13.2402C58.9355 12.8861 59.0462 12.5983 59.2676 12.377C59.5111 12.1335 59.8099 12.0117 60.1641 12.0117C60.4961 12.0117 60.7839 12.1335 61.0273 12.377C61.2708 12.5983 61.3926 12.8861 61.3926 13.2402V20.3789C62.123 19.6263 62.7539 19.084 63.2852 18.752C64.3034 18.1543 65.2773 17.8555 66.207 17.8555C67.1589 17.8555 67.9336 17.9993 68.5312 18.2871C69.1289 18.5527 69.638 18.9401 70.0586 19.4492C70.8997 20.4453 71.3203 21.6849 71.3203 23.168V30.9043C71.3203 31.2363 71.1986 31.5241 70.9551 31.7676C70.7116 32.0111 70.4238 32.1328 70.0918 32.1328C69.7598 32.1328 69.472 32.0111 69.2285 31.7676C68.985 31.5241 68.8633 31.2363 68.8633 30.9043V23.4336C68.8633 22.4154 68.6309 21.6185 68.166 21.043C67.7012 20.4453 66.9375 20.1465 65.875 20.1465ZM75.9688 18.8184C77.4961 18.1543 79.0788 17.8333 80.7168 17.8555C82.554 17.8555 83.9818 18.4199 85 19.5488C85.9076 20.5228 86.3724 21.7402 86.3945 23.2012V30.9043C86.3945 31.2363 86.2617 31.5241 85.9961 31.7676C85.7526 32.0111 85.4538 32.1328 85.0996 32.1328C84.7676 32.1328 84.4798 32.0111 84.2363 31.7676C83.9928 31.5241 83.8711 31.2363 83.8711 30.9043V30.207C83.3841 30.7161 82.7311 31.1921 81.9121 31.6348C81.0931 32.0553 80.0527 32.2656 78.791 32.2656C77.5293 32.2656 76.4779 31.9004 75.6367 31.1699C74.7734 30.4173 74.3418 29.4323 74.3418 28.2148C74.3418 26.8646 74.8509 25.8021 75.8691 25.0273C76.9759 24.1862 78.5475 23.7767 80.584 23.7988H83.8711V23.5664C83.8711 22.349 83.5723 21.4857 82.9746 20.9766C82.3991 20.4674 81.4915 20.2129 80.252 20.2129C79.2116 20.2129 78.0052 20.4232 76.6328 20.8438C76.5 20.888 76.334 20.9102 76.1348 20.9102C75.9577 20.9102 75.7695 20.8216 75.5703 20.6445C75.3711 20.4453 75.2604 20.1465 75.2383 19.748C75.2383 19.3275 75.4818 19.0176 75.9688 18.8184ZM76.832 27.916C76.832 29.377 77.7949 30.0964 79.7207 30.0742C80.5618 30.0742 81.3477 29.875 82.0781 29.4766C82.8307 29.056 83.4284 28.5911 83.8711 28.082V25.791H80.9492C79.6654 25.791 78.6582 25.957 77.9277 26.2891C77.1973 26.599 76.832 27.1413 76.832 27.916ZM100.938 30.207C99.5872 31.5794 98.0378 32.2656 96.2891 32.2656C94.5625 32.2656 93.0573 31.6569 91.7734 30.4395C90.401 29.0671 89.7038 27.2741 89.6816 25.0605C89.6816 22.8913 90.3789 21.1094 91.7734 19.7148C93.0352 18.4531 94.5404 17.8333 96.2891 17.8555C98.0378 17.8555 99.5872 18.5417 100.938 19.9141V13.2402C100.938 12.8861 101.048 12.5983 101.27 12.377C101.513 12.1335 101.812 12.0117 102.166 12.0117C102.52 12.0117 102.808 12.1335 103.029 12.377C103.273 12.5983 103.395 12.8861 103.395 13.2402V30.9043C103.395 31.2363 103.273 31.5241 103.029 31.7676C102.808 32.0111 102.52 32.1328 102.166 32.1328C101.812 32.1328 101.513 32.0111 101.27 31.7676C101.048 31.5241 100.938 31.2363 100.938 30.9043V30.207ZM100.938 22.2051C99.6979 20.8327 98.2591 20.1576 96.6211 20.1797C94.5404 20.1797 93.179 21.0983 92.5371 22.9355C92.3158 23.5553 92.194 24.2637 92.1719 25.0605C92.1719 26.61 92.5924 27.8385 93.4336 28.7461C94.2083 29.5651 95.2708 29.9635 96.6211 29.9414C98.2591 29.9414 99.6979 29.2663 100.938 27.916V22.2051ZM131.152 12.875C131.484 12.875 131.772 12.9967 132.016 13.2402C132.259 13.4837 132.381 13.7826 132.381 14.1367V30.373C132.381 30.86 132.204 31.2806 131.85 31.6348C131.495 31.9668 131.075 32.1328 130.588 32.1328H130.256C129.658 32.1328 129.182 31.8893 128.828 31.4023L118.303 16.1953V30.9043C118.303 31.2363 118.181 31.5241 117.938 31.7676C117.694 32.0111 117.395 32.1328 117.041 32.1328C116.709 32.1328 116.421 32.0111 116.178 31.7676C115.934 31.5241 115.812 31.2363 115.812 30.9043V14.668C115.812 14.181 115.979 13.7604 116.311 13.4062C116.665 13.0521 117.096 12.875 117.605 12.875H117.938C118.513 12.875 119.022 13.1517 119.465 13.7051L129.924 28.8125V14.1367C129.924 13.8047 130.046 13.5169 130.289 13.2734C130.533 13.0078 130.82 12.875 131.152 12.875ZM137.66 18.8184C139.188 18.1543 140.77 17.8333 142.408 17.8555C144.245 17.8555 145.673 18.4199 146.691 19.5488C147.599 20.5228 148.064 21.7402 148.086 23.2012V30.9043C148.086 31.2363 147.953 31.5241 147.688 31.7676C147.444 32.0111 147.145 32.1328 146.791 32.1328C146.459 32.1328 146.171 32.0111 145.928 31.7676C145.684 31.5241 145.562 31.2363 145.562 30.9043V30.207C145.076 30.7161 144.423 31.1921 143.604 31.6348C142.785 32.0553 141.744 32.2656 140.482 32.2656C139.221 32.2656 138.169 31.9004 137.328 31.1699C136.465 30.4173 136.033 29.4323 136.033 28.2148C136.033 26.8646 136.542 25.8021 137.561 25.0273C138.667 24.1862 140.239 23.7767 142.275 23.7988H145.562V23.5664C145.562 22.349 145.264 21.4857 144.666 20.9766C144.09 20.4674 143.183 20.2129 141.943 20.2129C140.903 20.2129 139.697 20.4232 138.324 20.8438C138.191 20.888 138.025 20.9102 137.826 20.9102C137.649 20.9102 137.461 20.8216 137.262 20.6445C137.062 20.4453 136.952 20.1465 136.93 19.748C136.93 19.3275 137.173 19.0176 137.66 18.8184ZM138.523 27.916C138.523 29.377 139.486 30.0964 141.412 30.0742C142.253 30.0742 143.039 29.875 143.77 29.4766C144.522 29.056 145.12 28.5911 145.562 28.082V25.791H142.641C141.357 25.791 140.35 25.957 139.619 26.2891C138.889 26.599 138.523 27.1413 138.523 27.916ZM162.629 19.9141V19.25C162.629 18.918 162.74 18.6302 162.961 18.3867C163.204 18.1211 163.492 17.9883 163.824 17.9883C164.156 17.9883 164.444 18.11 164.688 18.3535C164.953 18.597 165.086 18.8958 165.086 19.25V31.4023C165.086 33.7044 164.533 35.4642 163.426 36.6816C162.319 37.9212 160.747 38.541 158.711 38.541C156.542 38.541 154.594 38.0651 152.867 37.1133C152.557 36.9141 152.402 36.6374 152.402 36.2832C152.402 35.929 152.502 35.6302 152.701 35.3867C152.923 35.1654 153.144 35.0547 153.365 35.0547C153.587 35.0547 153.786 35.0879 153.963 35.1543C155.335 35.8405 156.829 36.1836 158.445 36.1836C161.234 36.1836 162.629 34.7116 162.629 31.7676V29.9414C161.345 31.3138 159.796 32 157.98 32C156.254 32 154.771 31.4134 153.531 30.2402C152.092 28.9121 151.373 27.1413 151.373 24.9277C151.373 22.6921 152.092 20.9102 153.531 19.582C154.771 18.4089 156.276 17.8333 158.047 17.8555C159.818 17.8555 161.345 18.5417 162.629 19.9141ZM162.629 22.1055C162.12 21.5742 161.533 21.1094 160.869 20.7109C160.227 20.3125 159.508 20.1133 158.711 20.1133C157.914 20.1133 157.228 20.2129 156.652 20.4121C156.099 20.6113 155.612 20.9102 155.191 21.3086C154.306 22.1497 153.863 23.3561 153.863 24.9277C153.863 27.2741 154.793 28.7793 156.652 29.4434C157.228 29.6426 157.914 29.7422 158.711 29.7422C160.039 29.7422 161.345 29.0671 162.629 27.7168V22.1055ZM169.867 18.8184C171.395 18.1543 172.977 17.8333 174.615 17.8555C176.452 17.8555 177.88 18.4199 178.898 19.5488C179.806 20.5228 180.271 21.7402 180.293 23.2012V30.9043C180.293 31.2363 180.16 31.5241 179.895 31.7676C179.651 32.0111 179.352 32.1328 178.998 32.1328C178.666 32.1328 178.378 32.0111 178.135 31.7676C177.891 31.5241 177.77 31.2363 177.77 30.9043V30.207C177.283 30.7161 176.63 31.1921 175.811 31.6348C174.992 32.0553 173.951 32.2656 172.689 32.2656C171.428 32.2656 170.376 31.9004 169.535 31.1699C168.672 30.4173 168.24 29.4323 168.24 28.2148C168.24 26.8646 168.749 25.8021 169.768 25.0273C170.874 24.1862 172.446 23.7767 174.482 23.7988H177.77V23.5664C177.77 22.349 177.471 21.4857 176.873 20.9766C176.298 20.4674 175.39 20.2129 174.15 20.2129C173.11 20.2129 171.904 20.4232 170.531 20.8438C170.398 20.888 170.232 20.9102 170.033 20.9102C169.856 20.9102 169.668 20.8216 169.469 20.6445C169.27 20.4453 169.159 20.1465 169.137 19.748C169.137 19.3275 169.38 19.0176 169.867 18.8184ZM170.73 27.916C170.73 29.377 171.693 30.0964 173.619 30.0742C174.46 30.0742 175.246 29.875 175.977 29.4766C176.729 29.056 177.327 28.5911 177.77 28.082V25.791H174.848C173.564 25.791 172.557 25.957 171.826 26.2891C171.096 26.599 170.73 27.1413 170.73 27.916ZM186.9 20.4121C188.184 18.7077 189.612 17.8555 191.184 17.8555H191.316C191.648 17.8555 191.925 17.9772 192.146 18.2207C192.39 18.4421 192.512 18.7298 192.512 19.084C192.512 19.4382 192.39 19.7259 192.146 19.9473C191.903 20.1465 191.604 20.2461 191.25 20.2461H191.117C190.21 20.2461 189.402 20.4674 188.693 20.9102C187.985 21.3529 187.387 21.9284 186.9 22.6367V30.9043C186.9 31.2363 186.779 31.5241 186.535 31.7676C186.292 32.0111 186.004 32.1328 185.672 32.1328C185.34 32.1328 185.052 32.0111 184.809 31.7676C184.565 31.5241 184.443 31.2363 184.443 30.9043V19.25C184.443 18.918 184.554 18.6302 184.775 18.3867C185.019 18.1211 185.318 17.9883 185.672 17.9883C186.004 17.9883 186.292 18.11 186.535 18.3535C186.779 18.597 186.9 18.8958 186.9 19.25V20.4121Z" fill="white"/>
</svg>
