<svg width="200" height="50" viewBox="0 0 200 50" fill="none" xmlns="http://www.w3.org/2000/svg">
<path d="M10.8643 16.291C11.0921 16.291 11.2874 16.3805 11.4502 16.5596C11.6292 16.7223 11.7188 16.9258 11.7188 17.1699C11.7188 17.3978 11.6292 17.5931 11.4502 17.7559C11.2874 17.9186 11.0921 18 10.8643 18H2.83203C2.58789 18 2.3763 17.9105 2.19727 17.7314C2.01823 17.5524 1.92871 17.3408 1.92871 17.0967V4.96289C1.92871 4.71875 2.01823 4.50716 2.19727 4.32812C2.3763 4.13281 2.58789 4.03516 2.83203 4.03516H10.8643C11.0921 4.03516 11.2874 4.12467 11.4502 4.30371C11.6292 4.46647 11.7188 4.66178 11.7188 4.88965C11.7188 5.11751 11.6292 5.32096 11.4502 5.5C11.2874 5.66276 11.0921 5.74414 10.8643 5.74414H3.75977V10.1631H10.1318C10.3597 10.1631 10.555 10.2445 10.7178 10.4072C10.8968 10.57 10.9863 10.7734 10.9863 11.0176C10.9863 11.2454 10.9049 11.4489 10.7422 11.6279C10.5794 11.7907 10.376 11.8721 10.1318 11.8721H3.75977V16.291H10.8643ZM14.6973 8.30762C15.8203 7.81934 16.984 7.58333 18.1885 7.59961C19.5394 7.59961 20.5892 8.01465 21.3379 8.84473C22.0052 9.56087 22.347 10.4561 22.3633 11.5303V17.1943C22.3633 17.4385 22.2656 17.6501 22.0703 17.8291C21.8913 18.0081 21.6715 18.0977 21.4111 18.0977C21.167 18.0977 20.9554 18.0081 20.7764 17.8291C20.5973 17.6501 20.5078 17.4385 20.5078 17.1943V16.6816C20.1497 17.056 19.6696 17.4059 19.0674 17.7314C18.4652 18.0407 17.7002 18.1953 16.7725 18.1953C15.8447 18.1953 15.0716 17.9268 14.4531 17.3896C13.8184 16.8363 13.501 16.112 13.501 15.2168C13.501 14.224 13.8753 13.4427 14.624 12.873C15.4378 12.2546 16.5934 11.9535 18.0908 11.9697H20.5078V11.7988C20.5078 10.9036 20.2881 10.2689 19.8486 9.89453C19.4255 9.52018 18.7581 9.33301 17.8467 9.33301C17.0817 9.33301 16.1947 9.48763 15.1855 9.79688C15.0879 9.82943 14.9658 9.8457 14.8193 9.8457C14.6891 9.8457 14.5508 9.7806 14.4043 9.65039C14.2578 9.50391 14.1764 9.28418 14.1602 8.99121C14.1602 8.68197 14.3392 8.4541 14.6973 8.30762ZM15.332 14.9971C15.332 16.0713 16.04 16.6003 17.4561 16.584C18.0745 16.584 18.6523 16.4375 19.1895 16.1445C19.7428 15.8353 20.1823 15.4935 20.5078 15.1191V13.4346H18.3594C17.4154 13.4346 16.6748 13.5566 16.1377 13.8008C15.6006 14.0286 15.332 14.4274 15.332 14.9971ZM28.6621 16.5107C30.1432 16.5107 30.8757 16.0469 30.8594 15.1191C30.8594 14.8262 30.7129 14.5983 30.4199 14.4355C30.127 14.2728 29.7607 14.1344 29.3213 14.0205C28.8818 13.9066 28.4017 13.7845 27.8809 13.6543C27.36 13.5241 26.8717 13.3451 26.416 13.1172C25.9603 12.8893 25.5859 12.5964 25.293 12.2383C25 11.8639 24.8535 11.4082 24.8535 10.8711C24.8535 10.334 24.9349 9.87826 25.0977 9.50391C25.2604 9.11328 25.5046 8.77962 25.8301 8.50293C26.5299 7.90072 27.5065 7.59961 28.7598 7.59961C29.7689 7.59961 30.7373 7.76237 31.665 8.08789C31.8441 8.15299 31.9824 8.26693 32.0801 8.42969C32.194 8.57617 32.251 8.73893 32.251 8.91797C32.251 9.08073 32.1696 9.24349 32.0068 9.40625C31.8604 9.56901 31.7139 9.65039 31.5674 9.65039C31.4209 9.65039 31.2419 9.61784 31.0303 9.55273C30.3955 9.35742 29.6956 9.25977 28.9307 9.25977C28.1657 9.25977 27.5879 9.38997 27.1973 9.65039C26.8066 9.91081 26.6113 10.2363 26.6113 10.627C26.6113 11.0013 26.7578 11.278 27.0508 11.457C27.3438 11.6198 27.71 11.7663 28.1494 11.8965C28.6051 12.0267 29.0934 12.1488 29.6143 12.2627C30.1514 12.3766 30.6396 12.5475 31.0791 12.7754C32.1208 13.3125 32.6416 14.1344 32.6416 15.2412C32.6416 16.1038 32.3161 16.7956 31.665 17.3164C30.9814 17.9023 30.013 18.1953 28.7598 18.1953C27.4251 18.1953 26.2207 17.8942 25.1465 17.292C24.9186 17.1292 24.7965 16.9339 24.7803 16.7061C24.7803 16.4619 24.8535 16.2585 25 16.0957C25.1628 15.9167 25.3255 15.8271 25.4883 15.8271C25.651 15.8271 25.8626 15.8841 26.123 15.998C26.888 16.3398 27.7344 16.5107 28.6621 16.5107ZM38.6963 16.584C39.0544 16.584 39.3066 16.5596 39.4531 16.5107C39.6159 16.4456 39.7868 16.4131 39.9658 16.4131C40.1449 16.4131 40.3076 16.4863 40.4541 16.6328C40.6006 16.763 40.6738 16.9665 40.6738 17.2432C40.6738 17.5036 40.5436 17.6908 40.2832 17.8047C39.7135 18.0651 39.2253 18.1953 38.8184 18.1953C38.4115 18.1953 38.0371 18.1709 37.6953 18.1221C37.3698 18.0895 37.0524 17.9837 36.7432 17.8047C36.0107 17.3815 35.6445 16.6328 35.6445 15.5586V9.35742H34.2285C33.9844 9.35742 33.8542 9.22721 33.8379 8.9668C33.8379 8.85286 33.903 8.74707 34.0332 8.64941L36.7432 5.98828C36.8571 5.87435 36.971 5.81738 37.085 5.81738C37.1989 5.80111 37.2884 5.83366 37.3535 5.91504C37.4186 5.99642 37.4512 6.09408 37.4512 6.20801V7.79492H39.7217C39.9495 7.79492 40.1367 7.86816 40.2832 8.01465C40.4297 8.16113 40.5029 8.34831 40.5029 8.57617C40.5029 8.80404 40.4297 8.99121 40.2832 9.1377C40.1367 9.28418 39.9495 9.35742 39.7217 9.35742H37.4512V15.4121C37.4512 15.9167 37.6058 16.2585 37.915 16.4375C38.0778 16.5352 38.3382 16.584 38.6963 16.584ZM55.0537 16.4863C56.307 16.4863 57.4788 16.1934 58.5693 15.6074V11.9941H55.249C55.0212 11.9941 54.8258 11.9128 54.6631 11.75C54.5166 11.5872 54.4434 11.3919 54.4434 11.1641C54.4434 10.9362 54.5247 10.7409 54.6875 10.5781C54.8503 10.4154 55.0374 10.334 55.249 10.334H59.2041C59.4645 10.334 59.6842 10.4316 59.8633 10.627C60.0586 10.806 60.1562 11.0339 60.1562 11.3105V15.8271C60.1562 16.1201 60.083 16.3805 59.9365 16.6084C59.8063 16.82 59.6273 16.9746 59.3994 17.0723C57.902 17.821 56.3802 18.1953 54.834 18.1953C52.7344 18.1953 51.0417 17.528 49.7559 16.1934C48.4701 14.8587 47.819 13.1416 47.8027 11.042C47.8027 8.92611 48.4782 7.17643 49.8291 5.79297C51.1149 4.49089 52.7588 3.83984 54.7607 3.83984C55.9001 3.83984 56.8604 3.97819 57.6416 4.25488C58.4229 4.53158 59.1227 4.87337 59.7412 5.28027C60.0016 5.42676 60.1318 5.63835 60.1318 5.91504C60.1318 6.19173 60.0586 6.41146 59.9121 6.57422C59.7819 6.73698 59.611 6.81836 59.3994 6.81836C59.1878 6.81836 59.0169 6.78581 58.8867 6.7207C57.6009 5.97201 56.2907 5.59766 54.9561 5.59766C53.4098 5.59766 52.1403 6.06966 51.1475 7.01367C50.1221 8.00651 49.6175 9.34928 49.6338 11.042C49.6338 12.6208 50.1058 13.9147 51.0498 14.9238C52.0426 15.9655 53.3773 16.4863 55.0537 16.4863ZM64.3555 13.5566C64.4694 14.4518 64.8112 15.168 65.3809 15.7051C65.9668 16.2259 66.7643 16.4863 67.7734 16.4863C68.7988 16.4863 69.6696 16.3236 70.3857 15.998C70.6136 15.8841 70.8171 15.8271 70.9961 15.8271C71.1751 15.8109 71.3379 15.876 71.4844 16.0225C71.6471 16.1689 71.7285 16.3317 71.7285 16.5107C71.7285 16.8688 71.582 17.1211 71.2891 17.2676C71.0124 17.4141 70.7601 17.5443 70.5322 17.6582C70.3044 17.7721 70.0602 17.8698 69.7998 17.9512C69.1976 18.1139 68.4977 18.1953 67.7002 18.1953C66.0563 18.1953 64.7786 17.7396 63.8672 16.8281C62.972 15.9004 62.5244 14.5902 62.5244 12.8975C62.5244 11.4326 62.9069 10.2119 63.6719 9.23535C64.5345 8.14486 65.7471 7.59961 67.3096 7.59961C68.807 7.59961 69.987 8.10417 70.8496 9.11328C71.6634 10.0573 72.0703 11.2373 72.0703 12.6533C72.0703 12.8975 71.9808 13.109 71.8018 13.2881C71.639 13.4671 71.4274 13.5566 71.167 13.5566H64.3555ZM67.3096 9.1377C66.1214 9.1377 65.2588 9.66667 64.7217 10.7246C64.5264 11.099 64.4043 11.5465 64.3555 12.0674H70.2637C70.2148 11.1234 69.8649 10.3747 69.2139 9.82129C68.693 9.36556 68.0583 9.1377 67.3096 9.1377ZM79.0039 7.59961C80.5501 7.59961 81.7952 8.08789 82.7393 9.06445C83.6833 10.0573 84.139 11.335 84.1064 12.8975C84.1064 14.4762 83.6507 15.7539 82.7393 16.7305C81.7952 17.707 80.5501 18.1953 79.0039 18.1953C77.4414 18.1953 76.2044 17.707 75.293 16.7305C74.349 15.7539 73.877 14.4762 73.877 12.8975C73.877 11.3024 74.349 10.0247 75.293 9.06445C76.2044 8.08789 77.4414 7.59961 79.0039 7.59961ZM76.7578 15.7295C77.0833 16.0062 77.4414 16.2096 77.832 16.3398C78.2389 16.4701 78.6296 16.5352 79.0039 16.5352C79.3783 16.5352 79.7607 16.4701 80.1514 16.3398C80.542 16.2096 80.9001 15.998 81.2256 15.7051C81.9417 15.054 82.2998 14.11 82.2998 12.873C82.2998 11.6686 81.9417 10.7327 81.2256 10.0654C80.6234 9.51204 79.8828 9.24349 79.0039 9.25977C77.5553 9.25977 76.5544 9.91081 76.001 11.2129C75.8057 11.6849 75.708 12.2464 75.708 12.8975C75.708 13.5485 75.8057 14.11 76.001 14.582C76.1963 15.054 76.4486 15.4365 76.7578 15.7295ZM88.4521 9.47949C89.3962 8.22624 90.446 7.59961 91.6016 7.59961H91.6992C91.9434 7.59961 92.1468 7.68913 92.3096 7.86816C92.4886 8.03092 92.5781 8.24251 92.5781 8.50293C92.5781 8.76335 92.4886 8.97493 92.3096 9.1377C92.1305 9.28418 91.9108 9.35742 91.6504 9.35742H91.5527C90.8854 9.35742 90.2913 9.52018 89.7705 9.8457C89.2497 10.1712 88.8102 10.5944 88.4521 11.1152V17.1943C88.4521 17.4385 88.3626 17.6501 88.1836 17.8291C88.0046 18.0081 87.793 18.0977 87.5488 18.0977C87.3047 18.0977 87.0931 18.0081 86.9141 17.8291C86.735 17.6501 86.6455 17.4385 86.6455 17.1943V8.625C86.6455 8.38086 86.7269 8.16927 86.8896 7.99023C87.0687 7.79492 87.2884 7.69727 87.5488 7.69727C87.793 7.69727 88.0046 7.78678 88.1836 7.96582C88.3626 8.14486 88.4521 8.36458 88.4521 8.625V9.47949ZM102.002 9.11328V8.625C102.002 8.38086 102.083 8.16927 102.246 7.99023C102.425 7.79492 102.637 7.69727 102.881 7.69727C103.125 7.69727 103.337 7.78678 103.516 7.96582C103.711 8.14486 103.809 8.36458 103.809 8.625V17.5605C103.809 19.2533 103.402 20.5472 102.588 21.4424C101.774 22.3538 100.618 22.8096 99.1211 22.8096C97.526 22.8096 96.0938 22.4596 94.8242 21.7598C94.5964 21.6133 94.4824 21.4098 94.4824 21.1494C94.4824 20.889 94.5557 20.6693 94.7021 20.4902C94.8649 20.3275 95.0277 20.2461 95.1904 20.2461C95.3532 20.2461 95.4997 20.2705 95.6299 20.3193C96.639 20.8239 97.7376 21.0762 98.9258 21.0762C100.977 21.0762 102.002 19.9938 102.002 17.8291V16.4863C101.058 17.4954 99.9186 18 98.584 18C97.3145 18 96.224 17.5687 95.3125 16.7061C94.2546 15.7295 93.7256 14.4274 93.7256 12.7998C93.7256 11.1559 94.2546 9.8457 95.3125 8.86914C96.224 8.00651 97.3307 7.58333 98.6328 7.59961C99.9349 7.59961 101.058 8.10417 102.002 9.11328ZM102.002 10.7246C101.628 10.334 101.196 9.99219 100.708 9.69922C100.236 9.40625 99.707 9.25977 99.1211 9.25977C98.5352 9.25977 98.0306 9.33301 97.6074 9.47949C97.2005 9.62598 96.8424 9.8457 96.5332 10.1387C95.8822 10.7572 95.5566 11.6442 95.5566 12.7998C95.5566 14.5251 96.2402 15.6318 97.6074 16.1201C98.0306 16.2666 98.5352 16.3398 99.1211 16.3398C100.098 16.3398 101.058 15.8434 102.002 14.8506V10.7246ZM108.179 13.5566C108.293 14.4518 108.634 15.168 109.204 15.7051C109.79 16.2259 110.588 16.4863 111.597 16.4863C112.622 16.4863 113.493 16.3236 114.209 15.998C114.437 15.8841 114.64 15.8271 114.819 15.8271C114.998 15.8109 115.161 15.876 115.308 16.0225C115.47 16.1689 115.552 16.3317 115.552 16.5107C115.552 16.8688 115.405 17.1211 115.112 17.2676C114.836 17.4141 114.583 17.5443 114.355 17.6582C114.128 17.7721 113.883 17.8698 113.623 17.9512C113.021 18.1139 112.321 18.1953 111.523 18.1953C109.88 18.1953 108.602 17.7396 107.69 16.8281C106.795 15.9004 106.348 14.5902 106.348 12.8975C106.348 11.4326 106.73 10.2119 107.495 9.23535C108.358 8.14486 109.57 7.59961 111.133 7.59961C112.63 7.59961 113.81 8.10417 114.673 9.11328C115.487 10.0573 115.894 11.2373 115.894 12.6533C115.894 12.8975 115.804 13.109 115.625 13.2881C115.462 13.4671 115.251 13.5566 114.99 13.5566H108.179ZM111.133 9.1377C109.945 9.1377 109.082 9.66667 108.545 10.7246C108.35 11.099 108.228 11.5465 108.179 12.0674H114.087C114.038 11.1234 113.688 10.3747 113.037 9.82129C112.516 9.36556 111.882 9.1377 111.133 9.1377ZM122.046 16.584C122.404 16.584 122.656 16.5596 122.803 16.5107C122.965 16.4456 123.136 16.4131 123.315 16.4131C123.494 16.4131 123.657 16.4863 123.804 16.6328C123.95 16.763 124.023 16.9665 124.023 17.2432C124.023 17.5036 123.893 17.6908 123.633 17.8047C123.063 18.0651 122.575 18.1953 122.168 18.1953C121.761 18.1953 121.387 18.1709 121.045 18.1221C120.719 18.0895 120.402 17.9837 120.093 17.8047C119.36 17.3815 118.994 16.6328 118.994 15.5586V9.35742H117.578C117.334 9.35742 117.204 9.22721 117.188 8.9668C117.188 8.85286 117.253 8.74707 117.383 8.64941L120.093 5.98828C120.207 5.87435 120.321 5.81738 120.435 5.81738C120.549 5.80111 120.638 5.83366 120.703 5.91504C120.768 5.99642 120.801 6.09408 120.801 6.20801V7.79492H123.071C123.299 7.79492 123.486 7.86816 123.633 8.01465C123.779 8.16113 123.853 8.34831 123.853 8.57617C123.853 8.80404 123.779 8.99121 123.633 9.1377C123.486 9.28418 123.299 9.35742 123.071 9.35742H120.801V15.4121C120.801 15.9167 120.955 16.2585 121.265 16.4375C121.427 16.5352 121.688 16.584 122.046 16.584ZM130.493 7.59961C132.039 7.59961 133.285 8.08789 134.229 9.06445C135.173 10.0573 135.628 11.335 135.596 12.8975C135.596 14.4762 135.14 15.7539 134.229 16.7305C133.285 17.707 132.039 18.1953 130.493 18.1953C128.931 18.1953 127.694 17.707 126.782 16.7305C125.838 15.7539 125.366 14.4762 125.366 12.8975C125.366 11.3024 125.838 10.0247 126.782 9.06445C127.694 8.08789 128.931 7.59961 130.493 7.59961ZM128.247 15.7295C128.573 16.0062 128.931 16.2096 129.321 16.3398C129.728 16.4701 130.119 16.5352 130.493 16.5352C130.868 16.5352 131.25 16.4701 131.641 16.3398C132.031 16.2096 132.389 15.998 132.715 15.7051C133.431 15.054 133.789 14.11 133.789 12.873C133.789 11.6686 133.431 10.7327 132.715 10.0654C132.113 9.51204 131.372 9.24349 130.493 9.25977C129.045 9.25977 128.044 9.91081 127.49 11.2129C127.295 11.6849 127.197 12.2464 127.197 12.8975C127.197 13.5485 127.295 14.11 127.49 14.582C127.686 15.054 127.938 15.4365 128.247 15.7295ZM150.049 8.23438C150.146 7.8763 150.431 7.69727 150.903 7.69727C151.131 7.69727 151.326 7.78678 151.489 7.96582C151.668 8.12858 151.758 8.30762 151.758 8.50293C151.758 8.68197 151.742 8.82845 151.709 8.94238L148.877 17.2676C148.796 17.4954 148.649 17.6908 148.438 17.8535C148.226 18.0163 147.982 18.0977 147.705 18.0977C147.445 18.0977 147.201 18.0163 146.973 17.8535C146.761 17.6908 146.615 17.4873 146.533 17.2432L144.409 10.627L142.285 17.2432C142.188 17.471 142.033 17.6745 141.821 17.8535C141.61 18.0163 141.366 18.0977 141.089 18.0977C140.828 18.0977 140.592 18.0163 140.381 17.8535C140.169 17.6908 140.023 17.4954 139.941 17.2676L137.109 8.94238C137.077 8.82845 137.061 8.68197 137.061 8.50293C137.061 8.30762 137.142 8.12858 137.305 7.96582C137.484 7.78678 137.687 7.69727 137.915 7.69727C138.387 7.69727 138.672 7.8763 138.77 8.23438L141.089 15.9492L143.433 8.42969C143.498 8.2181 143.62 8.0472 143.799 7.91699C143.978 7.77051 144.181 7.69727 144.409 7.69727C144.637 7.69727 144.84 7.76237 145.02 7.89258C145.199 8.02279 145.321 8.20182 145.386 8.42969L147.705 15.9492L150.049 8.23438ZM158.911 9.28418C157.739 9.28418 156.641 9.92708 155.615 11.2129V17.1943C155.615 17.4385 155.526 17.6501 155.347 17.8291C155.168 18.0081 154.956 18.0977 154.712 18.0977C154.468 18.0977 154.256 18.0081 154.077 17.8291C153.898 17.6501 153.809 17.4385 153.809 17.1943V8.625C153.809 8.36458 153.89 8.14486 154.053 7.96582C154.232 7.78678 154.451 7.69727 154.712 7.69727C154.956 7.69727 155.168 7.78678 155.347 7.96582C155.526 8.12858 155.615 8.34831 155.615 8.625V9.45508C156.152 8.90169 156.616 8.50293 157.007 8.25879C157.756 7.81934 158.472 7.59961 159.155 7.59961C159.855 7.59961 160.425 7.7054 160.864 7.91699C161.304 8.1123 161.678 8.39714 161.987 8.77148C162.606 9.50391 162.915 10.4154 162.915 11.5059V17.1943C162.915 17.4385 162.826 17.6501 162.646 17.8291C162.467 18.0081 162.256 18.0977 162.012 18.0977C161.768 18.0977 161.556 18.0081 161.377 17.8291C161.198 17.6501 161.108 17.4385 161.108 17.1943V11.7012C161.108 10.9525 160.938 10.3665 160.596 9.94336C160.254 9.50391 159.692 9.28418 158.911 9.28418ZM6.15234 41.4863C8.47982 41.4863 9.65169 40.7132 9.66797 39.167C9.66797 38.5322 9.22038 38.0277 8.3252 37.6533C7.93457 37.4906 7.47884 37.3441 6.95801 37.2139C6.45345 37.0837 5.94076 36.9453 5.41992 36.7988C4.89909 36.6523 4.37826 36.4896 3.85742 36.3105C3.33659 36.1152 2.88086 35.8711 2.49023 35.5781C1.61133 34.9108 1.16374 34.0319 1.14746 32.9414C1.14746 31.7695 1.59505 30.8092 2.49023 30.0605C3.45052 29.2467 4.73633 28.8398 6.34766 28.8398C7.8125 28.8398 9.13086 29.0596 10.3027 29.499C10.6771 29.6292 10.8724 29.8978 10.8887 30.3047C10.8887 30.5 10.8154 30.6872 10.6689 30.8662C10.5387 31.0452 10.3841 31.1348 10.2051 31.1348C10.0423 31.1348 9.81445 31.0859 9.52148 30.9883C8.64258 30.679 7.64974 30.5244 6.54297 30.5244C5.51758 30.5244 4.67122 30.7197 4.00391 31.1104C3.32031 31.5173 2.97852 32.0788 2.97852 32.7949C2.97852 33.5436 3.41797 34.1214 4.29688 34.5283C4.70378 34.7074 5.15951 34.862 5.66406 34.9922C6.16862 35.1061 6.68945 35.2282 7.22656 35.3584C7.76367 35.4886 8.27637 35.6514 8.76465 35.8467C9.26921 36.0257 9.72493 36.2536 10.1318 36.5303C11.0107 37.165 11.4583 38.0928 11.4746 39.3135C11.4746 40.4528 11.0107 41.3805 10.083 42.0967C9.139 42.8291 7.89388 43.1953 6.34766 43.1953C4.65495 43.1953 3.06803 42.8779 1.58691 42.2432C1.44043 42.1781 1.31022 42.0723 1.19629 41.9258C1.08236 41.763 1.02539 41.584 1.02539 41.3887C1.02539 41.1934 1.09863 41.0143 1.24512 40.8516C1.3916 40.6725 1.55436 40.583 1.7334 40.583C1.92871 40.583 2.16471 40.6481 2.44141 40.7783C2.73438 40.9085 3.20638 41.0632 3.85742 41.2422C4.50846 41.4049 5.27344 41.4863 6.15234 41.4863ZM17.8223 41.5107C18.9941 41.5107 20.0928 40.876 21.1182 39.6064V33.6006C21.1182 33.3564 21.1995 33.1449 21.3623 32.9658C21.5413 32.7868 21.7611 32.6973 22.0215 32.6973C22.2656 32.6973 22.4772 32.7868 22.6562 32.9658C22.8353 33.1286 22.9248 33.3402 22.9248 33.6006V42.1699C22.9248 42.4303 22.8353 42.6501 22.6562 42.8291C22.4935 43.0081 22.2819 43.0977 22.0215 43.0977C21.7773 43.0977 21.5658 43.0081 21.3867 42.8291C21.2077 42.6501 21.1182 42.4303 21.1182 42.1699V41.3643C20.5811 41.9176 20.1172 42.3083 19.7266 42.5361C18.9779 42.9756 18.2536 43.1953 17.5537 43.1953C16.8701 43.1953 16.3005 43.0895 15.8447 42.8779C15.4053 42.6663 15.0391 42.3896 14.7461 42.0479C14.1276 41.3154 13.8184 40.3958 13.8184 39.2891V33.6006C13.8184 33.3564 13.8997 33.1449 14.0625 32.9658C14.2415 32.7868 14.4613 32.6973 14.7217 32.6973C14.9658 32.6973 15.1774 32.7868 15.3564 32.9658C15.5355 33.1286 15.625 33.3402 15.625 33.6006V39.0693C15.625 39.818 15.7959 40.4121 16.1377 40.8516C16.4795 41.291 17.041 41.5107 17.8223 41.5107ZM31.1768 34.2842C30.0049 34.2842 28.9062 34.9271 27.8809 36.2129V42.1943C27.8809 42.4385 27.7913 42.6501 27.6123 42.8291C27.4333 43.0081 27.2217 43.0977 26.9775 43.0977C26.7334 43.0977 26.5218 43.0081 26.3428 42.8291C26.1637 42.6501 26.0742 42.4385 26.0742 42.1943V33.625C26.0742 33.3646 26.1556 33.1449 26.3184 32.9658C26.4974 32.7868 26.7171 32.6973 26.9775 32.6973C27.2217 32.6973 27.4333 32.7868 27.6123 32.9658C27.7913 33.1286 27.8809 33.3483 27.8809 33.625V34.4551C28.418 33.9017 28.8818 33.5029 29.2725 33.2588C30.0212 32.8193 30.7373 32.5996 31.4209 32.5996C32.1208 32.5996 32.6904 32.7054 33.1299 32.917C33.5693 33.1123 33.9437 33.3971 34.2529 33.7715C34.8714 34.5039 35.1807 35.4154 35.1807 36.5059V42.1943C35.1807 42.4385 35.0911 42.6501 34.9121 42.8291C34.7331 43.0081 34.5215 43.0977 34.2773 43.0977C34.0332 43.0977 33.8216 43.0081 33.6426 42.8291C33.4635 42.6501 33.374 42.4385 33.374 42.1943V36.7012C33.374 35.9525 33.2031 35.3665 32.8613 34.9434C32.5195 34.5039 31.958 34.2842 31.1768 34.2842ZM43.335 34.2842C42.1631 34.2842 41.0645 34.9271 40.0391 36.2129V42.1943C40.0391 42.4385 39.9495 42.6501 39.7705 42.8291C39.5915 43.0081 39.3799 43.0977 39.1357 43.0977C38.8916 43.0977 38.68 43.0081 38.501 42.8291C38.3219 42.6501 38.2324 42.4385 38.2324 42.1943V33.625C38.2324 33.3646 38.3138 33.1449 38.4766 32.9658C38.6556 32.7868 38.8753 32.6973 39.1357 32.6973C39.3799 32.6973 39.5915 32.7868 39.7705 32.9658C39.9495 33.1286 40.0391 33.3483 40.0391 33.625V34.4551C40.5762 33.9017 41.04 33.5029 41.4307 33.2588C42.1794 32.8193 42.8955 32.5996 43.5791 32.5996C44.279 32.5996 44.8486 32.7054 45.2881 32.917C45.7275 33.1123 46.1019 33.3971 46.4111 33.7715C47.0296 34.5039 47.3389 35.4154 47.3389 36.5059V42.1943C47.3389 42.4385 47.2493 42.6501 47.0703 42.8291C46.8913 43.0081 46.6797 43.0977 46.4355 43.0977C46.1914 43.0977 45.9798 43.0081 45.8008 42.8291C45.6217 42.6501 45.5322 42.4385 45.5322 42.1943V36.7012C45.5322 35.9525 45.3613 35.3665 45.0195 34.9434C44.6777 34.5039 44.1162 34.2842 43.335 34.2842ZM50.7568 33.3076C51.8799 32.8193 53.0436 32.5833 54.248 32.5996C55.599 32.5996 56.6488 33.0146 57.3975 33.8447C58.0648 34.5609 58.4066 35.4561 58.4229 36.5303V42.1943C58.4229 42.4385 58.3252 42.6501 58.1299 42.8291C57.9508 43.0081 57.7311 43.0977 57.4707 43.0977C57.2266 43.0977 57.015 43.0081 56.8359 42.8291C56.6569 42.6501 56.5674 42.4385 56.5674 42.1943V41.6816C56.2093 42.056 55.7292 42.4059 55.127 42.7314C54.5247 43.0407 53.7598 43.1953 52.832 43.1953C51.9043 43.1953 51.1312 42.9268 50.5127 42.3896C49.8779 41.8363 49.5605 41.112 49.5605 40.2168C49.5605 39.224 49.9349 38.4427 50.6836 37.873C51.4974 37.2546 52.653 36.9535 54.1504 36.9697H56.5674V36.7988C56.5674 35.9036 56.3477 35.2689 55.9082 34.8945C55.485 34.5202 54.8177 34.333 53.9062 34.333C53.1413 34.333 52.2542 34.4876 51.2451 34.7969C51.1475 34.8294 51.0254 34.8457 50.8789 34.8457C50.7487 34.8457 50.6104 34.7806 50.4639 34.6504C50.3174 34.5039 50.236 34.2842 50.2197 33.9912C50.2197 33.682 50.3988 33.4541 50.7568 33.3076ZM51.3916 39.9971C51.3916 41.0713 52.0996 41.6003 53.5156 41.584C54.1341 41.584 54.7119 41.4375 55.249 41.1445C55.8024 40.8353 56.2419 40.4935 56.5674 40.1191V38.4346H54.4189C53.4749 38.4346 52.7344 38.5566 52.1973 38.8008C51.6602 39.0286 51.3916 39.4274 51.3916 39.9971ZM65.1855 41.584C65.5436 41.584 65.7959 41.5596 65.9424 41.5107C66.1051 41.4456 66.276 41.4131 66.4551 41.4131C66.6341 41.4131 66.7969 41.4863 66.9434 41.6328C67.0898 41.763 67.1631 41.9665 67.1631 42.2432C67.1631 42.5036 67.0329 42.6908 66.7725 42.8047C66.2028 43.0651 65.7145 43.1953 65.3076 43.1953C64.9007 43.1953 64.5264 43.1709 64.1846 43.1221C63.859 43.0895 63.5417 42.9837 63.2324 42.8047C62.5 42.3815 62.1338 41.6328 62.1338 40.5586V34.3574H60.7178C60.4736 34.3574 60.3434 34.2272 60.3271 33.9668C60.3271 33.8529 60.3923 33.7471 60.5225 33.6494L63.2324 30.9883C63.3464 30.8743 63.4603 30.8174 63.5742 30.8174C63.6882 30.8011 63.7777 30.8337 63.8428 30.915C63.9079 30.9964 63.9404 31.0941 63.9404 31.208V32.7949H66.2109C66.4388 32.7949 66.626 32.8682 66.7725 33.0146C66.9189 33.1611 66.9922 33.3483 66.9922 33.5762C66.9922 33.804 66.9189 33.9912 66.7725 34.1377C66.626 34.2842 66.4388 34.3574 66.2109 34.3574H63.9404V40.4121C63.9404 40.9167 64.0951 41.2585 64.4043 41.4375C64.5671 41.5352 64.8275 41.584 65.1855 41.584ZM73.0713 41.5107C74.2432 41.5107 75.3418 40.876 76.3672 39.6064V33.6006C76.3672 33.3564 76.4486 33.1449 76.6113 32.9658C76.7904 32.7868 77.0101 32.6973 77.2705 32.6973C77.5146 32.6973 77.7262 32.7868 77.9053 32.9658C78.0843 33.1286 78.1738 33.3402 78.1738 33.6006V42.1699C78.1738 42.4303 78.0843 42.6501 77.9053 42.8291C77.7425 43.0081 77.5309 43.0977 77.2705 43.0977C77.0264 43.0977 76.8148 43.0081 76.6357 42.8291C76.4567 42.6501 76.3672 42.4303 76.3672 42.1699V41.3643C75.8301 41.9176 75.3662 42.3083 74.9756 42.5361C74.2269 42.9756 73.5026 43.1953 72.8027 43.1953C72.1191 43.1953 71.5495 43.0895 71.0938 42.8779C70.6543 42.6663 70.2881 42.3896 69.9951 42.0479C69.3766 41.3154 69.0674 40.3958 69.0674 39.2891V33.6006C69.0674 33.3564 69.1488 33.1449 69.3115 32.9658C69.4906 32.7868 69.7103 32.6973 69.9707 32.6973C70.2148 32.6973 70.4264 32.7868 70.6055 32.9658C70.7845 33.1286 70.874 33.3402 70.874 33.6006V39.0693C70.874 39.818 71.0449 40.4121 71.3867 40.8516C71.7285 41.291 72.29 41.5107 73.0713 41.5107ZM81.4697 29.2061C81.4697 28.9456 81.5592 28.734 81.7383 28.5713C81.9173 28.3923 82.137 28.3027 82.3975 28.3027C82.6579 28.3027 82.8695 28.3923 83.0322 28.5713C83.2113 28.734 83.3008 28.9456 83.3008 29.2061V42.1943C83.3008 42.4385 83.2113 42.6501 83.0322 42.8291C82.8695 43.0081 82.6579 43.0977 82.3975 43.0977C82.137 43.0977 81.9173 43.0081 81.7383 42.8291C81.5592 42.6501 81.4697 42.4385 81.4697 42.1943V29.2061ZM97.1924 28.9375C97.4365 28.9375 97.6481 29.027 97.8271 29.2061C98.0225 29.3851 98.1201 29.6048 98.1201 29.8652V38.3857C98.1201 40.1273 97.6807 41.4131 96.8018 42.2432C96.1182 42.8779 95.1823 43.1953 93.9941 43.1953C93.0176 43.1953 92.1305 42.9674 91.333 42.5117C91.04 42.349 90.8936 42.1374 90.8936 41.877C90.8936 41.6003 90.9587 41.3805 91.0889 41.2178C91.2354 41.055 91.3981 40.9736 91.5771 40.9736C91.7562 40.9736 91.9434 41.0143 92.1387 41.0957C92.6432 41.3398 93.1315 41.4701 93.6035 41.4863C94.0755 41.4863 94.458 41.4538 94.751 41.3887C95.0439 41.3073 95.3044 41.1608 95.5322 40.9492C96.0368 40.4609 96.2891 39.6553 96.2891 38.5322V29.8652C96.2891 29.6211 96.3786 29.4095 96.5576 29.2305C96.7367 29.0352 96.9482 28.9375 97.1924 28.9375ZM101.904 33.3076C103.027 32.8193 104.191 32.5833 105.396 32.5996C106.746 32.5996 107.796 33.0146 108.545 33.8447C109.212 34.5609 109.554 35.4561 109.57 36.5303V42.1943C109.57 42.4385 109.473 42.6501 109.277 42.8291C109.098 43.0081 108.879 43.0977 108.618 43.0977C108.374 43.0977 108.162 43.0081 107.983 42.8291C107.804 42.6501 107.715 42.4385 107.715 42.1943V41.6816C107.357 42.056 106.877 42.4059 106.274 42.7314C105.672 43.0407 104.907 43.1953 103.979 43.1953C103.052 43.1953 102.279 42.9268 101.66 42.3896C101.025 41.8363 100.708 41.112 100.708 40.2168C100.708 39.224 101.082 38.4427 101.831 37.873C102.645 37.2546 103.8 36.9535 105.298 36.9697H107.715V36.7988C107.715 35.9036 107.495 35.2689 107.056 34.8945C106.632 34.5202 105.965 34.333 105.054 34.333C104.289 34.333 103.402 34.4876 102.393 34.7969C102.295 34.8294 102.173 34.8457 102.026 34.8457C101.896 34.8457 101.758 34.7806 101.611 34.6504C101.465 34.5039 101.383 34.2842 101.367 33.9912C101.367 33.682 101.546 33.4541 101.904 33.3076ZM102.539 39.9971C102.539 41.0713 103.247 41.6003 104.663 41.584C105.282 41.584 105.859 41.4375 106.396 41.1445C106.95 40.8353 107.389 40.4935 107.715 40.1191V38.4346H105.566C104.622 38.4346 103.882 38.5566 103.345 38.8008C102.808 39.0286 102.539 39.4274 102.539 39.9971ZM114.429 34.4551C115.243 33.2344 116.374 32.6159 117.822 32.5996C118.538 32.5996 119.198 32.8112 119.8 33.2344C120.288 33.5762 120.654 34.0482 120.898 34.6504C121.273 34.0645 121.639 33.6576 121.997 33.4297C122.746 32.8763 123.6 32.5996 124.561 32.5996C125.635 32.5996 126.481 33.0146 127.1 33.8447C127.637 34.5446 127.905 35.4072 127.905 36.4326V42.1943C127.905 42.4385 127.816 42.6501 127.637 42.8291C127.474 43.0081 127.262 43.0977 127.002 43.0977C126.758 43.0977 126.546 43.0081 126.367 42.8291C126.188 42.6501 126.099 42.4385 126.099 42.1943V36.7988C126.099 35.9525 125.944 35.3258 125.635 34.9189C125.342 34.4958 124.821 34.2842 124.072 34.2842C122.9 34.2842 121.932 34.9271 121.167 36.2129V42.1943C121.167 42.4385 121.077 42.6501 120.898 42.8291C120.736 43.0081 120.524 43.0977 120.264 43.0977C120.02 43.0977 119.808 43.0081 119.629 42.8291C119.45 42.6501 119.36 42.4385 119.36 42.1943V36.7988C119.36 35.9525 119.206 35.3258 118.896 34.9189C118.604 34.4958 118.083 34.2842 117.334 34.2842C116.162 34.2842 115.194 34.9271 114.429 36.2129V42.1943C114.429 42.4385 114.339 42.6501 114.16 42.8291C113.981 43.0081 113.77 43.0977 113.525 43.0977C113.281 43.0977 113.07 43.0081 112.891 42.8291C112.712 42.6501 112.622 42.4385 112.622 42.1943V33.625C112.622 33.3809 112.703 33.1693 112.866 32.9902C113.045 32.7949 113.265 32.6973 113.525 32.6973C113.77 32.6973 113.981 32.7868 114.16 32.9658C114.339 33.1449 114.429 33.3646 114.429 33.625V34.4551ZM131.348 33.3076C132.471 32.8193 133.634 32.5833 134.839 32.5996C136.19 32.5996 137.24 33.0146 137.988 33.8447C138.656 34.5609 138.997 35.4561 139.014 36.5303V42.1943C139.014 42.4385 138.916 42.6501 138.721 42.8291C138.542 43.0081 138.322 43.0977 138.062 43.0977C137.817 43.0977 137.606 43.0081 137.427 42.8291C137.248 42.6501 137.158 42.4385 137.158 42.1943V41.6816C136.8 42.056 136.32 42.4059 135.718 42.7314C135.116 43.0407 134.351 43.1953 133.423 43.1953C132.495 43.1953 131.722 42.9268 131.104 42.3896C130.469 41.8363 130.151 41.112 130.151 40.2168C130.151 39.224 130.526 38.4427 131.274 37.873C132.088 37.2546 133.244 36.9535 134.741 36.9697H137.158V36.7988C137.158 35.9036 136.938 35.2689 136.499 34.8945C136.076 34.5202 135.409 34.333 134.497 34.333C133.732 34.333 132.845 34.4876 131.836 34.7969C131.738 34.8294 131.616 34.8457 131.47 34.8457C131.34 34.8457 131.201 34.7806 131.055 34.6504C130.908 34.5039 130.827 34.2842 130.811 33.9912C130.811 33.682 130.99 33.4541 131.348 33.3076ZM131.982 39.9971C131.982 41.0713 132.69 41.6003 134.106 41.584C134.725 41.584 135.303 41.4375 135.84 41.1445C136.393 40.8353 136.833 40.4935 137.158 40.1191V38.4346H135.01C134.066 38.4346 133.325 38.5566 132.788 38.8008C132.251 39.0286 131.982 39.4274 131.982 39.9971ZM142.432 33.3076C143.555 32.8193 144.718 32.5833 145.923 32.5996C147.274 32.5996 148.324 33.0146 149.072 33.8447C149.74 34.5609 150.081 35.4561 150.098 36.5303V42.1943C150.098 42.4385 150 42.6501 149.805 42.8291C149.626 43.0081 149.406 43.0977 149.146 43.0977C148.901 43.0977 148.69 43.0081 148.511 42.8291C148.332 42.6501 148.242 42.4385 148.242 42.1943V41.6816C147.884 42.056 147.404 42.4059 146.802 42.7314C146.2 43.0407 145.435 43.1953 144.507 43.1953C143.579 43.1953 142.806 42.9268 142.188 42.3896C141.553 41.8363 141.235 41.112 141.235 40.2168C141.235 39.224 141.61 38.4427 142.358 37.873C143.172 37.2546 144.328 36.9535 145.825 36.9697H148.242V36.7988C148.242 35.9036 148.022 35.2689 147.583 34.8945C147.16 34.5202 146.493 34.333 145.581 34.333C144.816 34.333 143.929 34.4876 142.92 34.7969C142.822 34.8294 142.7 34.8457 142.554 34.8457C142.424 34.8457 142.285 34.7806 142.139 34.6504C141.992 34.5039 141.911 34.2842 141.895 33.9912C141.895 33.682 142.074 33.4541 142.432 33.3076ZM143.066 39.9971C143.066 41.0713 143.774 41.6003 145.19 41.584C145.809 41.584 146.387 41.4375 146.924 41.1445C147.477 40.8353 147.917 40.4935 148.242 40.1191V38.4346H146.094C145.15 38.4346 144.409 38.5566 143.872 38.8008C143.335 39.0286 143.066 39.4274 143.066 39.9971ZM156.86 41.584C157.218 41.584 157.471 41.5596 157.617 41.5107C157.78 41.4456 157.951 41.4131 158.13 41.4131C158.309 41.4131 158.472 41.4863 158.618 41.6328C158.765 41.763 158.838 41.9665 158.838 42.2432C158.838 42.5036 158.708 42.6908 158.447 42.8047C157.878 43.0651 157.389 43.1953 156.982 43.1953C156.576 43.1953 156.201 43.1709 155.859 43.1221C155.534 43.0895 155.216 42.9837 154.907 42.8047C154.175 42.3815 153.809 41.6328 153.809 40.5586V34.3574H152.393C152.148 34.3574 152.018 34.2272 152.002 33.9668C152.002 33.8529 152.067 33.7471 152.197 33.6494L154.907 30.9883C155.021 30.8743 155.135 30.8174 155.249 30.8174C155.363 30.8011 155.452 30.8337 155.518 30.915C155.583 30.9964 155.615 31.0941 155.615 31.208V32.7949H157.886C158.114 32.7949 158.301 32.8682 158.447 33.0146C158.594 33.1611 158.667 33.3483 158.667 33.5762C158.667 33.804 158.594 33.9912 158.447 34.1377C158.301 34.2842 158.114 34.3574 157.886 34.3574H155.615V40.4121C155.615 40.9167 155.77 41.2585 156.079 41.4375C156.242 41.5352 156.502 41.584 156.86 41.584Z" fill="black"/>
</svg>
